<svg width="72" height="29" fill="none" xmlns="http://www.w3.org/2000/svg"><path d="m62 10 3.4-5.3c.3-.3-3 .4-4.1.8l-3.3 1-2.8.6-2 .2c-.4 0-.7-.2-.9-.4l-.2-1 .3-1.5.6-1.3L54 2c.2-.4.5-.6 1-.7a6 6 0 0 1 2.4-.2l3.3.3 3.5.1c1.2 0 2.5-.3 3-.6.6-.2 1-.5 1.6-.4a3.7 3.7 0 0 1 2.8 2.2 2 2 0 0 1 0 1.7c0 .2-.3.8-.8 1.3-2.4 2.2-5 5.6-6.6 7.7-3.5 4.6-4.3 6.3-5.1 7.7-1.1 1.8-3.3 6.3-3.7 6.7-.5.5-1 .4-1.3.2-.4 0-.9-.7-.7-1.4l4.8-9.7c.7-1.3 2.7-5.1 3.9-7ZM37.8 22a20.4 20.4 0 0 1 3-9.2c.6-.8 1.3-1.4 2-1.9a7 7 0 0 1 2.7-.8c.8-.1 1.5.2 1.8.8.4.7.6 1.6.6 2.7 0 1-.3 2.2-.6 3.5-.4 1.3-1 2.5-1.6 3.7L44 22.9c-.7.8-1 1.2-1.7 1.6l-2.4 1c-.6 0-1.3-.2-1.6-.9-.3-.6-.5-1.5-.5-2.6ZM35 14.5c-.7 1-1.2 2.1-1.6 3.2-.4 1.1-.6 2.2-.7 3.2-.1 1-.1 2 .1 3a5.1 5.1 0 0 0 3.5 3.8c1 .3 3.4.6 5.5-.1 2-.8 3.9-2.7 4.8-4a18.6 18.6 0 0 0 3.6-8.6c.2-1.5.2-2.8 0-3.9-.3-1.1-.8-2-1.5-2.7a4 4 0 0 0-3-1c-1.7 0-3.3.4-4.8 1.3-1.5.8-2.8 1.9-4 3.2-1.1 1.2-1.2 1.5-2 2.6ZM32.5 3a4 4 0 0 0-.8-1L30.5 1 29.2.6h-1a1 1 0 0 0-.8.6l-.8 1.7A83 83 0 0 0 22 15.7a44 44 0 0 0-1.4 8.7c0 .9.4 1.9.9 2.5.7 1 1.8 1.1 2.6 1.2.6 0 2-.2 2.7-.5a32.3 32.3 0 0 0 3.9-1.8c.9-.9-.1-2.6-1.5-1.8l-1 .5c-.7.5-1.7 1-2.7 1-1 .2-1.9-.3-2-1.2-.1-1 1-3.6 1.6-4.7l1.8-3.8 2-4.1 1.9-3.5L32 5.5a9 9 0 0 0 .6-1.5c0-.2 0-.6-.2-1ZM8.6 15.1c.5-1 1-1.8 1.7-2.6.5-.7 1.1-1.4 1.7-1.8a3 3 0 0 1 1.6-.8c.6 0 1 .2 1.3.8.1.5.1 1.2-.1 2a7.2 7.2 0 0 1-3.6 4.4 6.5 6.5 0 0 1-3.8.8c.3-1 .7-1.9 1.2-2.8Zm6.9 8.9-1.7.9c-.5.2-2 .7-3 .8-.9 0-2.6.2-3.6-.8s-1-2.2-1-2.7c0-.8.1-1.1.4-2h2.3c1-.2 2-.4 3.2-1 1-.4 1.8-1 2.6-1.9a12 12 0 0 0 1.9-2.5c.5-.9.8-1.8 1-2.8.1-1 0-1.7-.3-2.5-.2-.7-.8-1.3-1.6-1.7-.7-.4-1.9-.6-3.3-.5-2.1.2-4 .9-5.5 2a13 13 0 0 0-5 7.2c-.3 0-1.2 0-1.4 1-.1.8.6 1.3 1 1.3-.1 1.6 0 3 .4 4.3a7 7 0 0 0 2.8 3.6c1 .8 3.3 1.4 4.7 1.3a14.2 14.2 0 0 0 7.4-2.2c1.2-1-.2-2.5-1.3-1.8Z" fill="#FDB933"/></svg>