<svg width="74" height="18" viewBox="0 0 67 16" fill="none" xmlns="http://www.w3.org/2000/svg"><path d="M12.6 13.8v-1l-.1-.5a22.1 22.1 0 0 1-1 1 2 2 0 0 1-.3.1l-.3.1c-.2 0-.3 0-.3-.2v-1.5a46.2 46.2 0 0 1 .4-2.6V9l-.1-.2-.2-.1h-.8l-.1-.1-.2-.1-.1-.2-.2-.2H9c-.3 0-.6 0-1 .2l-1 .6a5.6 5.6 0 0 0-1.5 2 6 6 0 0 0-.5 1.7l-.2.1a8.8 8.8 0 0 1-1.2.7H3L3 13a2 2 0 0 1-.2-.7v-.4l.2-.3v-.2l.1-.2a46 46 0 0 1 2.3-4.4 17.6 17.6 0 0 0 1.1-3 6.7 6.7 0 0 0 .1-2c0-.2 0-.4-.2-.5a1 1 0 0 0-.9-.5c-.2 0-.6 0-.9.2l-.9.8L3 3a13.1 13.1 0 0 0-1.3 3 22.1 22.1 0 0 0-.8 4.8 9.2 9.2 0 0 0 .5 3l.6 1c.3.3.5.4.8.4h.6a5 5 0 0 0 1.2-.5l.6-.4h.1l.3.3a1.8 1.8 0 0 0 1.4.6l.6-.1a3.7 3.7 0 0 0 1.3-.7l.4-.4.6 1 .8.2c.3 0 .6 0 .9-.2a4 4 0 0 0 1.2-.8l-.1-.4ZM2.8 7.7a13.5 13.5 0 0 1 1.2-4l.5-.8.5-.2v.5c0 .4 0 1-.2 1.5a17 17 0 0 1-1.4 3.1l-.7 1.4.1-1.5Zm6 4a4.2 4.2 0 0 1-.8 1.8c-.2.2-.3.2-.5.2h-.3l-.2-.3v-.3l-.1-.3V12a4.4 4.4 0 0 1 1.2-2l.5-.4.6-.2-.4 2.2Z" fill="#C273A8"/><path d="m9.8 7 .3-.1.2-.2.3-.3c0-.2.2-.3.3-.5l.4-.4.4-.6.4-.5.4-.4.2-.7v-.4a1.1 1.1 0 0 0-1-.6h-.5l-.3.4-.6 1.5-.3.6-.2.5-.2.5-.1.3a1 1 0 0 0-.1.3l.1.4.3.1ZM65 12.7a1 1 0 0 0-.6 0c-.4.3-.9.4-1.7.4-1 0-1.5-.3-1.8-1H65c.6 0 1.1-.5 1.1-1.2 0-2.3-1.6-4-3.9-4-2 0-3.1 1.2-3.6 2.6-.2-.5-.5-1-1-1.3a4.1 4.1 0 0 0-3-1.2c-.8 0-1.4.1-2 .4V5.2a1 1 0 0 0-.3-.7 1 1 0 0 0-.8-.4 1 1 0 0 0-.8.4 1 1 0 0 0-.3.7V9A3.7 3.7 0 0 0 47 6.9c-2 0-3.1 1.2-3.6 2.6a4.3 4.3 0 0 0-4-2.5c-.8 0-1.4.1-2 .4V5.2a1 1 0 0 0-.3-.7 1 1 0 0 0-.8-.4 1 1 0 0 0-.8.4 1 1 0 0 0-.3.7v6a4 4 0 0 0 1.3 3c.8.7 1.8 1.2 3 1.2 1.1 0 2.1-.5 3-1.3.4-.4.7-.8.9-1.3.5 1.6 2 2.6 4 2.6a5 5 0 0 0 2.7-.7c.4-.3.6-.6.6-1 0-.6-.5-1-1-1a1 1 0 0 0-.6 0c-.4.3-.9.4-1.7.4-1 0-1.5-.3-1.8-1h4.2c.3 0 .6-.1.8-.3a4 4 0 0 0 1.2 2.3c.8.8 1.8 1.3 3 1.3 1.1 0 2.1-.5 3-1.3.4-.4.7-.8.9-1.3.5 1.6 2 2.6 4 2.6a5 5 0 0 0 2.7-.7c.4-.3.6-.6.6-1 0-.6-.5-1-1-1ZM45.5 10c.2-.7.9-1 1.4-1 .5 0 1.3.2 1.5 1h-3Zm10.2 2.2c-.3.3-.6.5-1 .5-.5 0-.8-.2-1.1-.5-.3-.3-.5-.6-.5-1 0-.5.2-.8.5-1.1.3-.3.6-.4 1-.4.5 0 .8.1 1.1.4.3.3.5.6.5 1 0 .5-.2.8-.5 1.1ZM62.3 9c.5 0 1.3.2 1.5 1h-3c.3-.7 1-1 1.5-1Z" fill="#C273A8"/><path d="M60 6.7c.2.2.4.2.6.2.3 0 .5 0 .7-.2l1-1 1.1 1c.2.2.4.2.6.2.3 0 .5 0 .7-.2.2-.2.2-.4.2-.6 0-.3 0-.5-.2-.7l-1.3-1.2-.4-.5a.9.9 0 0 0-.7-.2c-.2 0-.4 0-.6.2L60 5.4c-.2.2-.3.4-.3.7l.3.6Z" fill="#C273A8"/><path d="m35.4 12.4-.2.2a5.9 5.9 0 0 1-.7.6 3 3 0 0 1-.4.1 1 1 0 0 1-.3.1s-.2 0-.2-.3l-.2-.6a9.4 9.4 0 0 1 .2-2 25.8 25.8 0 0 0 .2-1.8c0-.2 0-.4-.2-.5a1 1 0 0 0-.7-.2c-.2 0-.3 0-.5.2l-.4.5a14.1 14.1 0 0 0-1 1.5l-.4.6-.2.3v-.4l.1-.5.1-.5a6.2 6.2 0 0 0 .1-1c0-.2 0-.4-.2-.5A.9.9 0 0 0 30 8a1 1 0 0 0-.6.2l-.5.5a10.4 10.4 0 0 0-1 1.5l-.3.6-.2.3V10a12.5 12.5 0 0 0 .2-1V8l-.3-.1a4 4 0 0 0-.8 0l-.2.1-.1.2-.2.4c0 .2 0 .4-.2.6a16.1 16.1 0 0 0-.4 2.7v.1a13.5 13.5 0 0 1-1.3.9l-1 .4c-.3.2-.7.2-1 .2H22l-.3-.1-.2-.2-.2-.4a5.2 5.2 0 0 0 2.2-1.2l.6-.9a2 2 0 0 0 0-1.7 1.8 1.8 0 0 0-1-1l-.7-.1c-.4 0-.7 0-1 .2-.3 0-.5.2-.8.5l-.6.7a4.9 4.9 0 0 0-.7 2.7l-.5.2-.6.1h-.5a.8.8 0 0 1-.4-.6v-.4a2.3 2.3 0 0 1 0-.9A16.2 16.2 0 0 1 18 9v-.4c0-.2 0-.3-.2-.5L17 8a1.1 1.1 0 0 0-.6.1l-.2.2-.1.2-2 4.7h-.1l.3-4.7c0-.2 0-.3-.2-.4l-.4-.1h-.1l-1 .1s-.2.2-.2.5a7.7 7.7 0 0 0-.1 1.8v1.4l.1 1v1l.2.7.4.6.7.2.6-.3.6-.6a8 8 0 0 0 1-1.8c0 .2 0 .4.2.6a1.6 1.6 0 0 0 .9.8l.7.1c.3 0 .7 0 1-.2.3 0 .5-.2.7-.3.1.2.2.5.4.6.2.3.5.6.9.7.3.2.7.3 1.2.3l1-.1a5.4 5.4 0 0 0 1.6-.7l.7-.4v.2l.1.5c0 .2.2.3.3.4h.9c.2 0 .3-.2.4-.4a93.8 93.8 0 0 0 2-4 35.3 35.3 0 0 0-.3 3.6v.4l.3.4h.9c.2 0 .4-.2.5-.4l1.5-4h.2a24.7 24.7 0 0 0-.1 3l.1.8.3.5.5.2a3.2 3.2 0 0 0 1.8-.5l.7-.5.6-.6a4 4 0 0 1-.6-1.2ZM21 11.3a3.7 3.7 0 0 1 .2-1l.3-.5.4-.3h.5l.3.1.2.6-.2.5a2.6 2.6 0 0 1-1 .8l-.7.2v-.4ZM37.8 9.7c.6-.6 1.7-.3 1.9.6.6-.7 1.7 0 1.6.9-.1 1.1-1.6 1.4-2.6 1.5 0-.6-.5-1-.9-1.4-.4-.5-.4-1 0-1.6Z" fill="#A1D5D1"/></svg>
