<svg width="79" height="36" fill="none" xmlns="http://www.w3.org/2000/svg"><path opacity=".5" d="m7.1 24.5-.8-3.7-1.7.8.8 3.4c1.4 5.4 3.4 5.4 4 5.4h2c-.4 0-3 0-4.3-5.9Zm2.2-.7c1 6.5 3.9 6.5 4.4 6.5H16c-2.5 0-3.8-2.2-4.1-4.1-.4-2.1-.8-7.7-.8-7.7l-2.5 1.2.7 4.1Z" fill="#A9F"/><path d="m16.7 22 .5-5.6.1-1.5c.3-1.6.9-2.9 1.6-3.6 0 0 0-.1 0 0l-3.7 2c-.9.7-1.5 2.2-1.5 4.1V23c0 5.3-1.8 6.8-3 7.3l-1.2.1h2c.6 0 4.5 0 5.2-8.3Z" fill="#9779FF"/><path d="m29.7 4.7-6.8 4a8 8 0 0 0-2.9 4.7c-.5 2.2-1.3 8-1.3 8-1.3 8.8-4.3 9-5 9h2.1c3.8 0 6.7-7.2 7.6-10.2l2.3-8.6c1-2.9 2.4-5.3 4-6.8.1 0 0-.1 0 0ZM33.5 16h1.2l2.1 7.4 2.5-7.5h1l2.6 7.5 2-7.5h1.2l-2.6 9h-1l-2.7-7.4-2.5 7.4h-1.1l-2.7-9ZM55 19.8c0-.5-.2-1-.4-1.5a4 4 0 0 0-.8-1.3c-.4-.4-.7-.8-1.3-1-.5-.3-1.1-.4-1.8-.4-.6 0-1.2.2-1.7.4-.6.2-1 .6-1.4 1-.4.4-.7 1-1 1.5a6.3 6.3 0 0 0 0 3.7c.2.6.5 1 1 1.5.3.4.8.8 1.4 1 .5.2 1 .4 1.7.4a5 5 0 0 0 2.2-.5c.6-.3 1.2-.8 1.6-1.4l-.9-.7c-.3.5-.6.9-1.2 1.1-.6.3-1.1.4-1.7.4-.6 0-1.2 0-1.6-.4-.4-.2-.7-.5-1-1-.3-.3-.4-.7-.5-1l-.1-1h7.4v-.8Zm-1.1-.2h-6l.1-.6.5-1c.3-.4.5-.7 1-.9.3-.2.9-.3 1.4-.3.4 0 .8 0 1.1.2.4.1.7.3 1 .6.5.5.9 1.3.9 2ZM64.4 10.4v7.2a3 3 0 0 0-.7-.8l-.8-.6-1-.4H61c-.7 0-1.2 0-1.9.3-.5.2-1 .6-1.4 1-.3.3-.7 1-.9 1.5-.2.6-.4 1.2-.3 1.9 0 .7.1 1.3.3 1.9.2.6.6 1 1 1.5.3.4.9.8 1.3 1a6 6 0 0 0 1.9.4l1-.1.9-.4.8-.6.7-.9V25h1V10.4h-1Zm-.2 11.4a3.4 3.4 0 0 1-1.9 2 3.7 3.7 0 0 1-2.8 0l-1.1-.8c-.3-.4-.6-.7-.7-1.2-.2-.5-.2-1-.2-1.4l.2-1.4c.2-.5.4-.9.7-1.2.3-.4.6-.6 1.1-.7a3.7 3.7 0 0 1 2.8 0c.5.1.8.4 1.1.7l.8 1.2a4 4 0 0 1 0 2.8ZM69.9 27.6c-.2.6-.5 1-.9 1.4-.3.4-.8.5-1.5.5H67l-.6-.1.1-1 .5.1.4.1c.2 0 .4 0 .6-.2.2 0 .3-.2.4-.4 0-.2.2-.3.3-.5l.1-.4.9-2-3.5-9.1h1.3l3 7.5 2.7-7.5h1.2L70 27.6Z" fill="#9779FF"/></svg>
